<?xml version="1.0" encoding="utf-8"?>
<!-- Generator: Adobe Illustrator 24.3.0, SVG Export Plug-In . SVG Version: 6.00 Build 0)  -->
<svg version="1.1" id="Layer_1" xmlns="http://www.w3.org/2000/svg" xmlns:xlink="http://www.w3.org/1999/xlink" x="0px" y="0px"
	 viewBox="0 0 512 512" style="enable-background:new 0 0 512 512;" xml:space="preserve">
<style type="text/css">
	.st0{fill:#C19D60;}
</style>
<path class="st0" d="M254.5,243.3c-3.9,3.9-3.9,10.2,0,14.1c3.9,3.9,10.2,3.9,14.1,0c3.9-3.9,3.9-10.2,0-14.1
	C264.8,239.4,258.5,239.4,254.5,243.3z"/>
<path class="st0" d="M465,117.4C505.1,72.9,511.7,13.6,511.9,11c0.3-3-0.7-6-2.9-8.1S504-0.3,501,0.1c-2.6,0.3-61.9,6.8-106.4,46.9
	c-5.3-16.5-14.4-31.5-26.9-44.1c-1.9-1.9-4.4-2.9-7.1-2.9c-2.7,0-5.2,1.1-7.1,2.9l-14.1,14.1C314.1,42.4,303,77.5,308.5,112
	c-36.5-8-75.8,1.5-102.2,25.6c0,0-0.1,0.1-0.1,0.1c0,0-0.1,0.1-0.1,0.1c-19.8,18.1-6.7,5.8-198.8,303.4
	c-11.6,18.3-9.1,41.8,6.3,57.2c15.4,15.4,38.9,17.9,57.2,6.3C364,317.6,352.1,325.2,352.5,324.9c16.5-11.7,28.8-25.2,36.6-40
	c13.2-25.1,17-54,11-81.4c5.8,0.9,11.6,1.4,17.3,1.4c28.6,0,56.5-11.2,77.6-32.3l14.1-14.1c3.9-3.9,3.9-10.2,0-14.1
	C496.5,131.8,481.5,122.7,465,117.4z M489.7,22.3c-4.3,19.9-15.8,58.2-44.3,86.7c-18.6,18.6-42.6,31.3-67.4,39.2l46.2-46.2
	c3.9-3.9,3.9-10.2,0-14.1c-3.9-3.9-10.2-3.9-14.1,0L363.9,134c8-25,20.8-49.1,39.2-67.4C431.4,38.2,469.8,26.6,489.7,22.3z
	 M353.5,31.2l6.7-6.7c9.2,11.5,15.4,25,18.1,39.6c-16.8,20.6-27,43.6-33.1,62.5c-4.7-2.9-9.6-5.4-14.7-7.6
	C321.7,87.7,330.3,54.4,353.5,31.2z M371.4,275.7c-6.3,12-16.5,23-30.2,32.8l-4.4,2.8L297,271.6c-3.9-3.9-10.2-3.9-14.1,0
	c-3.9,3.9-3.9,10.2,0,14.1l36.6,36.6l-86.3,55.1L198,342.3c-3.9-3.9-10.2-3.9-14.1,0c-3.9,3.9-3.9,10.2,0,14.1l32,32l-86.3,55.1
	L99,413c-3.9-3.9-10.2-3.9-14.1,0c-3.9,3.9-3.9,10.2,0,14.1l27.4,27.4L60,487.8c-10.4,6.6-23.7,5.1-32.3-3.5
	c-8.7-8.7-10.1-22-3.6-32.3l66.5-103.9l22.5,22.5c3.9,3.9,10.2,3.9,14.1,0c3.9-3.9,3.9-10.2,0-14.1l-25.6-25.6l55.2-86.2l41.1,41.1
	c3.9,3.9,10.2,3.9,14.1,0c3.9-3.9,3.9-10.2,0-14.1l-44.2-44.2l38.6-60.3c2.1-2.8,4.2-5.4,6.4-7.8l41.6,41.6c3.9,3.9,10.2,3.9,14.1,0
	c3.9-3.9,3.9-10.2,0-14.1l-40.9-40.9c35.1-24.9,90.1-23.1,125.7,12.6C384.7,189.6,391.6,237.1,371.4,275.7z M480.8,158.5
	c-23.2,23.2-56.5,31.8-87.8,23.1c-2.2-5.1-4.8-10-7.6-14.7c18.9-6.1,42-16.4,62.5-33.1c14.6,2.7,28.1,8.9,39.6,18.1L480.8,158.5z"/>
</svg>
