<?xml version="1.0" encoding="utf-8"?>
<!-- Generator: Adobe Illustrator 24.3.0, SVG Export Plug-In . SVG Version: 6.00 Build 0)  -->
<svg version="1.1" id="Layer_1" xmlns="http://www.w3.org/2000/svg" xmlns:xlink="http://www.w3.org/1999/xlink" x="0px" y="0px"
	 viewBox="0 0 512 512" style="enable-background:new 0 0 512 512;" xml:space="preserve">
<style type="text/css">
	.st0{fill:#C19D60;}
</style>
<g>
	<g>
		<path class="st0" d="M477.2,209.6c-22.4-20-52.4-37.2-84.6-48.4c0,0,0,0-0.1,0c0,0-0.1,0-0.1,0c-14.8-5.2-30.1-9.1-45.4-11.7
			c-9-10.9-39-42.7-90.8-54.8c-8.6-2-17.5,0-24.5,5.5c-7,5.6-11,13.8-11,22.8v41.2c-48.7,21.4-87.3,56.4-108.1,77.9
			c-3.1-15.6-9.9-35.3-25.1-50.5c-28.8-28.8-75.2-27.6-77.1-27.5c-5.7,0.2-10.3,4.8-10.4,10.4c-0.1,2-1.2,48.3,27.6,77.1
			c7.1,7.1,15.3,12.4,23.7,16.2c-8.3,3.9-16.5,9.2-23.7,16.4C-1.2,313.1,0,359.4,0,361.4c0.2,5.7,4.8,10.3,10.4,10.4
			c0.2,0,0.8,0,1.7,0c8.9,0,49.4-1.5,75.4-27.6c15.3-15.3,22.1-35.4,25.1-51.3c15.2,15.7,40,38.7,71.4,58.3V389
			c0,9.3,4.3,17.7,11.7,23.3c5.1,3.8,11.1,5.8,17.3,5.8c2.8,0,5.6-0.4,8.4-1.2c26.1-7.8,45.9-22,55.1-29.5c8.8,1.3,17.6,2,26.2,2
			c29.5,0,59-5,87.7-14.7c0,0,0,0,0.1,0c67-22.8,121.4-70.8,121.4-106.9C512,250.2,499.6,229.7,477.2,209.6z M42.9,236.4
			c-14.8-14.8-19.3-37-20.7-50.2c13.2,1.3,35.3,5.8,50.1,20.7c14.8,14.8,19.3,36.5,20.7,49.5C80,255.3,57.7,251.2,42.9,236.4z
			 M72.3,329c-14.8,14.8-36.9,19.3-50.1,20.7c1.4-13.2,5.9-35.4,20.7-50.1C57.7,284.7,80,280.2,93,278.9
			C91.7,292,87.2,314.1,72.3,329z M242.4,123c0-2.3,1-4.4,2.8-5.8c1-0.8,3.2-2.1,6.2-1.4c27.3,6.3,47.7,19.1,61.3,30.2
			c-3.3-0.1-6.6-0.2-9.8-0.2c-19.7,0-40,3.4-60.4,10.1V123z M215.3,396.1c-2.3,0.7-4.7,0.3-6.6-1.2c-1.1-0.8-3-2.7-3-5.9v-25.4
			c14.3,7.4,28.5,13.2,42.6,17.4C239.7,386.3,228.4,392.1,215.3,396.1z M302.8,367.6c-9,0-18.3-0.8-27.6-2.4
			c-24.3-4.3-49.4-14.1-74.7-29.2c-39.8-23.9-69.8-54.9-81.9-68.4c15.4-17.2,59.8-62.9,117-86.1c0.1,0,0.1-0.1,0.2-0.1
			c22.8-9.2,45.4-13.9,67-13.9c12.2,0,24.5,0.9,36.7,2.8c9.3,1.4,18.7,3.4,27.9,5.9c-22.7,24.1-37.1,59.5-37.1,93.8
			c0,31.3,13.9,65.2,35.8,89.3C345.2,364.8,324,367.6,302.8,367.6z M389.3,351.9c-22.5-20.3-37.3-52.5-37.3-82.1
			c0-32.3,15.8-66.9,38.9-86.3c61.8,23.1,99.6,63.9,99.6,83.9C490.4,287.8,452.1,328.9,389.3,351.9z"/>
	</g>
</g>
<g>
	<g>
		<path class="st0" d="M429.2,254.3c-6,0-10.8,4.8-10.8,10.8v4.8c0,6,4.8,10.8,10.8,10.8s10.8-4.8,10.8-10.8v-4.8
			C440,259.1,435.1,254.3,429.2,254.3z"/>
	</g>
</g>
<g>
	<g>
		<path class="st0" d="M317.3,194.9c-4.3-4.1-11.2-3.9-15.3,0.4c-1,1.1-2.1,2.2-3,3.4c-3.8,4.6-3.3,11.4,1.3,15.2
			c2,1.7,4.5,2.5,7,2.5c3.1,0,6.1-1.3,8.3-3.8c0.7-0.8,1.4-1.7,2.2-2.4C321.8,205.8,321.6,199,317.3,194.9z"/>
	</g>
</g>
<g>
	<g>
		<path class="st0" d="M316.1,327c-12-13.8-18.9-34.8-18.9-57.5c0-12.7,2.2-25.3,6.4-36.2c2.1-5.6-0.6-11.8-6.2-14
			c-5.6-2.1-11.8,0.6-14,6.2c-5.2,13.4-7.9,28.6-7.9,44c0,27.9,8.8,54,24.2,71.7c2.1,2.5,5.1,3.7,8.2,3.7c2.5,0,5-0.9,7.1-2.6
			C319.5,338.3,320,331.5,316.1,327z"/>
	</g>
</g>
</svg>
