<?xml version="1.0" standalone="no"?>
<!DOCTYPE svg PUBLIC "-//W3C//DTD SVG 20010904//EN"
 "http://www.w3.org/TR/2001/REC-SVG-20010904/DTD/svg10.dtd">
<svg version="1.0" xmlns="http://www.w3.org/2000/svg"
 width="236.000000pt" height="43.000000pt" viewBox="0 0 236.000000 43.000000"
 preserveAspectRatio="xMidYMid meet">

<g transform="translate(0.000000,43.000000) scale(0.100000,-0.100000)"
fill="#000000" stroke="none">
<path d="M18 363 c-13 -3 -18 -15 -18 -43 0 -32 4 -38 25 -42 19 -4 25 -1 25
13 0 10 4 20 9 23 14 9 41 -4 41 -20 0 -8 10 -14 24 -14 19 0 26 7 31 31 4 17
4 33 1 36 -3 4 -30 7 -60 7 -30 1 -52 4 -49 9 4 7 -1 8 -29 0z"/>
<path d="M274 268 c3 -50 6 -117 6 -150 0 -53 2 -58 23 -58 21 0 22 3 19 60
-4 62 12 105 29 79 6 -10 11 -10 22 -1 7 7 17 9 21 5 4 -4 4 0 0 10 -5 13 -16
17 -43 15 -25 -2 -35 1 -33 10 4 23 4 27 3 75 -1 44 -3 47 -27 47 l-27 0 7
-92z"/>
<path d="M332 338 c2 -19 9 -23 41 -23 26 0 42 6 48 16 12 23 2 29 -48 29 -40
0 -44 -2 -41 -22z"/>
<path d="M546 344 c-36 -35 -26 -95 22 -135 19 -16 20 -16 14 20 -2 20 -4 57
-4 84 2 49 -6 57 -32 31z"/>
<path d="M590 348 c1 -19 36 -58 52 -58 8 0 19 5 26 12 9 9 7 17 -10 35 -23
24 -68 31 -68 11z"/>
<path d="M803 331 l-1 -25 19 24 19 25 -3 -25 c-1 -18 2 -24 13 -22 12 3 13 1
3 -9 -14 -14 -18 -91 -6 -102 3 -4 5 -36 4 -72 -2 -60 -1 -65 18 -65 20 0 21
5 21 125 l0 125 35 0 c24 0 35 -5 35 -15 0 -22 23 -18 55 9 l29 25 -47 -3
c-39 -3 -47 0 -53 16 -5 17 -14 19 -72 17 -64 -3 -67 -4 -69 -28z"/>
<path d="M1095 303 c-4 -32 -9 -66 -11 -75 -4 -13 -1 -16 10 -12 9 3 16 1 16
-5 0 -6 -6 -11 -14 -11 -15 0 -20 -11 -31 -70 -4 -19 -9 -43 -11 -52 -4 -14 1
-18 20 -18 21 0 26 6 32 35 5 28 11 35 30 35 19 0 24 -7 30 -35 5 -26 11 -35
27 -35 18 0 19 4 14 58 -4 31 -8 66 -11 77 -2 11 -10 53 -17 93 -13 72 -13 72
-45 72 -32 0 -33 -1 -39 -57z m54 -95 c8 -34 7 -38 -10 -38 -13 0 -19 7 -19
23 0 27 13 75 16 62 2 -6 7 -27 13 -47z"/>
<path d="M1322 214 l3 -149 51 -3 c70 -4 95 17 102 86 4 43 2 52 -12 52 -19 0
-20 18 -2 42 17 23 9 72 -15 94 -12 10 -42 19 -74 22 l-56 5 3 -149z m93 60
c0 -22 -5 -29 -20 -29 -23 0 -32 30 -14 51 18 22 34 11 34 -22z m-35 -58 c0
-3 -4 -8 -10 -11 -5 -3 -10 -1 -10 4 0 6 5 11 10 11 6 0 10 -2 10 -4z m39 -44
c12 -23 4 -59 -16 -66 -24 -10 -33 3 -33 45 0 32 3 39 20 39 10 0 24 -8 29
-18z"/>
<path d="M1616 330 c-29 -35 -41 -99 -33 -177 7 -65 28 -93 71 -93 37 0 49 7
65 38 11 20 9 22 -11 22 -13 0 -29 -4 -37 -9 -33 -21 -42 -2 -40 94 1 99 8
121 33 112 13 -5 16 -22 16 -82 0 -53 4 -81 14 -91 25 -25 36 -16 36 32 0 30
4 43 11 38 8 -5 8 -1 0 14 -6 11 -11 35 -11 52 0 36 -38 80 -69 80 -10 0 -31
-14 -45 -30z"/>
<path d="M1876 330 c-29 -35 -41 -99 -33 -177 7 -65 28 -93 71 -93 37 0 49 7
65 38 11 20 9 22 -11 22 -13 0 -29 -4 -37 -9 -33 -21 -42 -2 -40 94 1 99 8
121 33 112 13 -5 16 -22 16 -82 0 -53 4 -81 14 -91 25 -25 36 -16 36 32 0 30
4 43 11 38 8 -5 8 -1 0 14 -6 11 -11 35 -11 52 0 36 -38 80 -69 80 -10 0 -31
-14 -45 -30z"/>
<path d="M2129 353 c-15 -4 -17 -21 -14 -141 1 -75 3 -140 4 -143 0 -4 12 -9
26 -11 13 -3 22 -2 20 3 -3 4 -1 19 5 34 6 16 7 32 2 39 -13 16 -23 62 -16 69
4 4 15 2 26 -4 14 -8 17 -14 9 -23 -8 -10 -7 -25 4 -56 12 -35 13 -45 3 -52
-8 -4 7 -8 35 -8 l48 0 -20 29 c-12 16 -17 31 -12 33 6 1 -1 26 -15 53 -25 52
-25 81 2 123 10 14 24 22 44 22 16 0 32 5 35 10 8 12 -36 30 -74 30 -23 0 -31
-8 -51 -49 -13 -28 -30 -53 -38 -56 -22 -8 -25 0 -7 18 15 16 21 73 8 80 -5 2
-15 2 -24 0z"/>
<path d="M36 240 c-4 -14 -8 -28 -7 -32 1 -5 -5 -7 -12 -5 -8 1 -13 -19 -15
-71 -3 -71 -3 -72 23 -72 24 0 25 3 25 55 0 43 3 55 15 55 17 0 18 -3 35 -68
8 -32 15 -42 32 -42 19 0 20 3 13 42 -11 55 -11 96 -1 131 10 33 -11 37 -37 7
-23 -27 -55 -26 -59 3 -3 22 -4 22 -12 -3z"/>
<path d="M677 231 c-10 -12 -9 -13 2 -6 8 4 27 8 42 7 16 0 31 4 35 9 9 16
-66 6 -79 -10z"/>
<path d="M610 194 c0 -14 5 -34 10 -44 8 -15 6 -24 -10 -40 -26 -26 -26 -50 0
-50 29 0 60 35 60 68 0 30 -34 92 -50 92 -5 0 -10 -12 -10 -26z"/>
<path d="M195 190 c3 -5 14 -10 23 -10 15 0 15 2 2 10 -20 13 -33 13 -25 0z"/>
<path d="M538 143 c-23 -6 -23 -25 0 -53 24 -30 46 -18 37 19 -8 32 -15 39
-37 34z"/>
<path d="M338 104 c-3 -3 -4 -14 -1 -25 6 -21 43 -27 43 -6 0 8 4 7 10 -3 8
-12 10 -9 10 13 0 23 -4 27 -28 27 -16 0 -31 -3 -34 -6z"/>
</g>
</svg>
