<?xml version="1.0" encoding="utf-8"?>
<!-- Generator: Adobe Illustrator 24.3.0, SVG Export Plug-In . SVG Version: 6.00 Build 0)  -->
<svg version="1.1" id="Icons" xmlns="http://www.w3.org/2000/svg" xmlns:xlink="http://www.w3.org/1999/xlink" x="0px" y="0px"
	 viewBox="0 0 512 512" style="enable-background:new 0 0 512 512;" xml:space="preserve">
<style type="text/css">
	.st0{fill:#222222;stroke:#000000;stroke-width:3;stroke-miterlimit:10;}
</style>
<path class="st0" d="M387.2,412.5c-1.9,0-3.7-0.8-5-2.2c-57.4-60.5-123.8-88.7-209.2-88.7h-62.1c-48.7-0.9-87.6-41.1-86.7-89.8
	c0.8-47.5,39.2-85.9,86.7-86.7H173c81.2,0,147.7-30.2,209.2-95.2c2.6-2.8,7-2.9,9.8-0.3c2.8,2.6,2.9,7,0.3,9.8
	c-64.3,67.9-134,99.5-219.3,99.5h-62.1c-41.1,1-73.6,35.1-72.7,76.2c0.9,39.7,32.9,71.7,72.7,72.7H173c89.4,0,159.1,29.6,219.3,93.1
	c2.6,2.8,2.5,7.2-0.3,9.8C390.7,411.8,389,412.5,387.2,412.5z"/>
<path class="st0" d="M477.8,301.4c-0.2,0-0.5,0-0.7,0c-3.8-0.4-6.6-3.8-6.2-7.6c0,0,0,0,0,0c0.7-6.5,1.2-13.2,1.6-20.1
	c0.2-3.8,3.3-6.7,7.1-6.5c0.1,0,0.1,0,0.2,0c3.8,0.2,6.7,3.5,6.5,7.3c0,0,0,0,0,0c-0.4,7-1,13.9-1.7,20.6
	C484.3,298.7,481.4,301.4,477.8,301.4z"/>
<path class="st0" d="M419.8,444.3c-10.1,0-25-6.2-38.9-35.9c-14.3-30.7-24.2-78.2-27.8-133.8c-0.9-14.7-1.4-29.6-1.4-44.5
	c0-14.9,0.5-29.9,1.4-44.6c3.6-55.6,13.4-103.1,27.8-133.8c13.8-29.7,28.8-35.9,38.9-35.9c35.8,0,56.5,72.5,64,140.3
	c0.4,3.8-2.3,7.2-6.1,7.6c-3.8,0.4-7.2-2.3-7.6-6.1c-9.2-84-32.3-128-50.3-128c-8.6,0-17.9,9.9-26.3,27.9
	C380,86.4,370.4,133.3,367,186.4c-0.9,14.4-1.4,29.1-1.4,43.7s0.5,29.3,1.4,43.6c3.4,53.1,13,100,26.5,128.8
	c8.4,18,17.7,27.9,26.3,27.9c13.7,0,32.7-27.5,44.5-88.9c0.6-3.8,4.2-6.3,8-5.7c3.8,0.6,6.3,4.2,5.7,8c0,0.1,0,0.2-0.1,0.3
	C465.7,407.8,444.5,444.3,419.8,444.3z"/>
<path class="st0" d="M480.9,232.6c-3.8,0-6.9-3.1-6.9-6.8c-0.1-6.8-0.2-13.5-0.5-20.1c-0.2-3.8,2.8-7,6.6-7.2c3.8-0.2,7,2.8,7.2,6.6
	c0.3,6.7,0.4,13.6,0.5,20.5C487.8,229.4,484.8,232.6,480.9,232.6C480.9,232.6,480.9,232.6,480.9,232.6L480.9,232.6z"/>
<path class="st0" d="M190.6,322.1c-2.7,0-5.1-1.5-6.3-3.9c-0.2-0.4-0.4-0.8-0.5-1.2c-21.5-54-21.4-114.2,0.3-168.1
	c1.3-3.6,5.2-5.5,8.8-4.2c3.6,1.3,5.5,5.2,4.2,8.8c0,0.1-0.1,0.3-0.2,0.4c-20.4,50.7-20.6,107.4-0.3,158.2c1.7,3.3,0.4,7.4-3,9.1
	c0,0-0.1,0-0.1,0C192.7,321.8,191.7,322.1,190.6,322.1L190.6,322.1z"/>
<path class="st0" d="M203.9,496.2h-77.6c-9.7,0-17.6-7.9-17.6-17.6V314.7c0-3.8,3.1-6.9,6.9-6.9H173c3.8,0,6.9,3.1,6.9,6.9
	c0,3.8-3.1,6.9-6.9,6.9h-50.4v157c0,2.1,1.7,3.8,3.8,3.8h77.6c3.4,0,6.1-2.7,6.1-6.1c0-1.3-0.4-2.6-1.2-3.7l-7.9-10.9
	c-8.7-11.8-13.9-25.8-15.3-40.3c-0.3-2.6-0.4-5.3-0.4-8v-98.2c0-3.8,3.1-6.9,6.9-6.9s6.9,3.1,6.9,6.9v98.2c0,2.2,0.1,4.4,0.4,6.6
	c1.1,12.1,5.5,23.7,12.7,33.5l7.9,10.9c6.5,8.9,4.6,21.4-4.3,27.9C212.3,494.8,208.2,496.1,203.9,496.2L203.9,496.2z"/>
<path class="st0" d="M192.1,359.2h-21.8c-3.8,0-6.9-3.1-6.9-6.9c0-3.8,3.1-6.9,6.9-6.9h21.8c3.8,0,6.9,3.1,6.9,6.9
	C199,356.1,195.9,359.2,192.1,359.2z"/>
<path class="st0" d="M192.1,393.4h-21.8c-3.8,0-6.9-3.1-6.9-6.9c0-3.8,3.1-6.9,6.9-6.9h21.8c3.8,0,6.9,3.1,6.9,6.9
	C199,390.3,195.9,393.4,192.1,393.4z"/>
<path class="st0" d="M192.5,427.7h-22.3c-3.8,0-6.9-3.1-6.9-6.9c0-3.8,3.1-6.9,6.9-6.9h22.3c3.8,0,6.9,3.1,6.9,6.9
	C199.5,424.6,196.4,427.7,192.5,427.7z"/>
<path class="st0" d="M374.5,281.1h-14.5c-3.8,0-6.9-3.1-6.9-6.9c0-3.8,3.1-6.9,6.9-6.9h14.5c20.5,0,37.2-16.7,37.2-37.2
	c0-20.5-16.7-37.2-37.2-37.2h-14.5c-3.8,0-6.9-3.1-6.9-6.9c0-3.8,3.1-6.9,6.9-6.9h14.5c28.2,0,51,22.8,51,51
	S402.7,281.1,374.5,281.1z"/>
</svg>
