<?xml version="1.0" encoding="utf-8"?>
<!-- Generator: Adobe Illustrator 24.3.0, SVG Export Plug-In . SVG Version: 6.00 Build 0)  -->
<svg version="1.1" id="Capa_1" xmlns="http://www.w3.org/2000/svg" xmlns:xlink="http://www.w3.org/1999/xlink" x="0px" y="0px"
	 viewBox="0 0 385 385" style="enable-background:new 0 0 385 385;" xml:space="preserve">
<g>
	<g id="Menu_1_">
		<path d="M372.9,264.7H12c-6.6,0-12,5.4-12,12c0,6.6,5.4,12,12,12h360.9c6.6,0,12-5.4,12-12S379.6,264.7,372.9,264.7z"/>
		<path d="M12,204.5h360.9c6.6,0,12-5.4,12-12c0-6.6-5.4-12-12-12H12c-6.6,0-12,5.4-12,12C0,199.1,5.4,204.5,12,204.5z"/>
		<path d="M12,120.3h240.6c6.6,0,12-5.4,12-12c0-6.6-5.4-12-12-12H12c-6.6,0-12,5.4-12,12C0,114.9,5.4,120.3,12,120.3z"/>
	</g>
</g>
</svg>
