<?xml version="1.0" encoding="utf-8"?>
<!-- Generator: Adobe Illustrator 24.3.0, SVG Export Plug-In . SVG Version: 6.00 Build 0)  -->
<svg version="1.1" id="Capa_1" xmlns="http://www.w3.org/2000/svg" xmlns:xlink="http://www.w3.org/1999/xlink" x="0px" y="0px"
	 viewBox="0 0 512 512" style="enable-background:new 0 0 512 512;" xml:space="preserve">
<style type="text/css">
	.st0{fill:#B19058;}
</style>
<path class="st0" d="M256,0C114.6,0,0,114.6,0,256s114.6,256,256,256s256-114.6,256-256S397.4,0,256,0z M344.5,269.6l-128,80
	c-2.6,1.6-5.5,2.4-8.5,2.4c-2.7,0-5.3-0.7-7.8-2c-5.1-2.8-8.2-8.2-8.2-14V176c0-5.8,3.2-11.2,8.2-14c5.1-2.8,11.3-2.7,16.2,0.4
	l128,80c4.7,2.9,7.5,8.1,7.5,13.6S349.2,266.6,344.5,269.6z"/>
</svg>
