<?xml version="1.0" encoding="utf-8"?>
<!-- Generator: Adobe Illustrator 24.3.0, SVG Export Plug-In . SVG Version: 6.00 Build 0)  -->
<svg version="1.1" id="Capa_1" xmlns="http://www.w3.org/2000/svg" xmlns:xlink="http://www.w3.org/1999/xlink" x="0px" y="0px"
	 viewBox="0 0 475.1 475.1" style="enable-background:new 0 0 475.1 475.1;" xml:space="preserve">
<style type="text/css">
	.st0{fill:#B19058;}
</style>
<g>
	<g>
		<path class="st0" d="M164.5,36.5H54.8c-15.2,0-28.2,5.3-38.8,16C5.3,63.2,0,76.1,0,91.4V201c0,15.2,5.3,28.2,16,38.8
			c10.7,10.7,23.6,16,38.8,16h64c7.6,0,14.1,2.7,19.4,8c5.3,5.3,8,11.8,8,19.4v9.1c0,20.2-7.1,37.4-21.4,51.7
			c-14.3,14.3-31.5,21.4-51.7,21.4H54.8c-5,0-9.2,1.8-12.9,5.4c-3.6,3.6-5.4,7.9-5.4,12.8v36.5c0,4.9,1.8,9.2,5.4,12.8
			c3.6,3.6,7.9,5.4,12.9,5.4h18.3c19.8,0,38.7-3.9,56.7-11.6c18-7.7,33.5-18.1,46.7-31.3c13.1-13.1,23.6-28.7,31.3-46.7
			c7.7-18,11.6-36.9,11.6-56.7v-201c0-15.2-5.3-28.2-16-38.8S179.7,36.5,164.5,36.5z"/>
		<path class="st0" d="M459.1,52.5c-10.7-10.7-23.6-16-38.8-16H310.6c-15.2,0-28.2,5.3-38.8,16c-10.7,10.7-16,23.6-16,38.8V201
			c0,15.2,5.3,28.2,16,38.8c10.7,10.7,23.6,16,38.8,16h64c7.6,0,14.1,2.7,19.4,8c5.3,5.3,8,11.8,8,19.4v9.1
			c0,20.2-7.1,37.4-21.4,51.7c-14.3,14.3-31.5,21.4-51.7,21.4h-18.3c-4.9,0-9.2,1.8-12.8,5.4c-3.6,3.6-5.4,7.9-5.4,12.8v36.5
			c0,4.9,1.8,9.2,5.4,12.8c3.6,3.6,7.9,5.4,12.8,5.4h18.3c19.8,0,38.7-3.9,56.7-11.6c18-7.7,33.5-18.1,46.7-31.3
			c13.1-13.1,23.6-28.7,31.3-46.7c7.7-18,11.6-36.9,11.6-56.7v-201C475.1,76.1,469.8,63.2,459.1,52.5z"/>
	</g>
</g>
</svg>
