<?xml version="1.0" encoding="utf-8"?>
<!-- Generator: Adobe Illustrator 24.3.0, SVG Export Plug-In . SVG Version: 6.00 Build 0)  -->
<svg version="1.1" id="Capa_1" xmlns="http://www.w3.org/2000/svg" xmlns:xlink="http://www.w3.org/1999/xlink" x="0px" y="0px"
	 viewBox="0 0 480 480" style="enable-background:new 0 0 480 480;" xml:space="preserve">
<style type="text/css">
	.st0{fill:#222222;stroke:#000000;stroke-width:4;stroke-miterlimit:10;}
</style>
<g>
	<g>
		<path class="st0" d="M475.7,435.3L475.7,435.3l-35.8-300.2c-0.5-4-3.9-7.1-7.9-7.1h-88v-24C344,46.6,297.4,0,240,0
			S136,46.6,136,104v24H48c-4.1,0-7.5,3-7.9,7.1L4.3,435.3c-2.6,21.9,13.1,41.8,35,44.4c1.6,0.2,3.2,0.3,4.7,0.3h392
			c22.1,0,40-17.9,40-40C476,438.4,475.9,436.8,475.7,435.3z M152,104c0-48.6,39.4-88,88-88s88,39.4,88,88v24H152V104z M453.9,455.9
			c-4.5,5.1-11.1,8.1-17.9,8.1H44c-13.3,0-24-10.7-24-24c0-0.9,0.1-1.9,0.2-2.8L55.1,144H136v56c0,4.4,3.6,8,8,8s8-3.6,8-8v-56h176
			v56c0,4.4,3.6,8,8,8s8-3.6,8-8v-56h80.9l34.9,293.2C460.6,444,458.4,450.8,453.9,455.9z"/>
	</g>
</g>
</svg>
