<?xml version="1.0" encoding="utf-8"?>
<!-- Generator: Adobe Illustrator 24.3.0, SVG Export Plug-In . SVG Version: 6.00 Build 0)  -->
<svg version="1.1" id="Layer_1" xmlns="http://www.w3.org/2000/svg" xmlns:xlink="http://www.w3.org/1999/xlink" x="0px" y="0px"
	 viewBox="0 0 512 512" style="enable-background:new 0 0 512 512;" xml:space="preserve">
<style type="text/css">
	.st0{fill:#C19D60;}
</style>
<g>
	<g>
		<g>
			<path class="st0" d="M131.1,146.2c2.1,2.1,4.8,3.1,7.6,3.1s5.5-1,7.5-3.1c4.2-4.2,4.2-10.9,0-15.1l-96-96
				c-4.2-4.2-10.9-4.2-15.1,0s-4.2,10.9,0,15.1L131.1,146.2z"/>
			<path class="st0" d="M80.8,20.4l98.1,83.1c10,10,15.7,23.4,15.6,36.7c-0.2,18.7,8.8,38.6,29.3,64.5c2.1,2.7,5.2,4.1,8.4,4.1
				c2.3,0,4.7-0.7,6.6-2.3c4.6-3.6,5.4-10.3,1.7-15c-22.3-28.3-24.8-42.6-24.7-51c0.2-19-7.7-37.9-22.4-52.6L94.6,4.1
				c-4.5-3.8-11.3-3.2-15,1.2C75.8,9.9,76.3,16.6,80.8,20.4z"/>
			<path class="st0" d="M502.6,457.4L356,310.8c-4.2-4.2-10.9-4.2-15.1,0s-4.2,10.9,0,15.1l146.6,146.6c4.2,4.2,4.2,10.9,0,15.1
				s-10.9,4.2-15.1,0L311.9,327c-4.2-4.2-10.9-4.2-15.1,0s-4.2,10.9,0,15.1l160.6,160.6c6.3,6.2,14.4,9.3,22.6,9.3
				s16.4-3.1,22.6-9.3C515.1,490.2,515.1,469.9,502.6,457.4z"/>
			<path class="st0" d="M505.2,46.6c0-17.4-5.9-32-17.5-43.5c-3.8-3.8-9.9-4.2-14.2-0.8c-2,1.6-37.5,36.8-453.4,453.3
				C7.6,468.1,7.6,488.5,20,501c6.3,6.3,14.5,9.4,22.7,9.4c8.2,0,16.3-3.1,22.6-9.3L201,365.2c52.3-52.3,75-59.6,87.4-60.5
				c23.4-1.7,43.7-10.4,58.5-25.3C415,211.5,505.3,113.4,505.2,46.6z M286.9,283.4c-25.9,1.9-56.1,21.8-101,66.6L50.2,485.9
				c-4.1,4.2-10.9,4.1-15.1,0c-4.2-4.1-4.1-10.9,0.1-15.1C308.5,197,446.1,59.3,479,26.7c3.2,5.8,4.8,12.4,4.8,20
				c0.1,65.7-114.3,180.1-151.9,217.7C320.7,275.5,305.2,282.1,286.9,283.4z"/>
			<path class="st0" d="M143.7,215.9c12.4,0.9,28,9,47.8,24.6c2,1.6,4.3,2.3,6.6,2.3c3.2,0,6.3-1.4,8.4-4.1c3.6-4.6,2.9-11.3-1.7-15
				c-23.6-18.6-42.5-27.9-59.4-29.1c-12.8-0.9-31-4.9-44.4-18.4L18.4,88.7c-4-4.3-10.8-4.5-15.1-0.4c-4.3,4-4.5,10.8-0.4,15.1
				l82.6,87.8C100,205.6,120.1,214.2,143.7,215.9z"/>
		</g>
	</g>
</g>
</svg>
